<svg xmlns="http://www.w3.org/2000/svg" width="178.334" height="175.072" viewBox="0 0 178.334 175.072">
  <path id="globe-americas-solid" d="M89.167,8C39.92,8,0,47.19,0,95.536s39.92,87.536,89.167,87.536,89.167-39.19,89.167-87.536a87.3,87.3,0,0,0-1.307-15.016C169.93,39.462,133.292,8,89.167,8Zm29.587,126.221c-1.4,1.37-2.873,2.806-4.066,3.981a8.4,8.4,0,0,0-2.218,3.78c-.543,2-.982,4.017-1.715,5.955L104.5,164.474a73.138,73.138,0,0,1-15.335,1.655v-9.664c.608-4.454-2.747-12.8-8.137-18.09a11.192,11.192,0,0,1-3.369-7.988v-11.3a11.226,11.226,0,0,0-5.918-9.873c-5.167-2.806-12.516-6.728-17.549-9.216a51.875,51.875,0,0,1-11.38-7.677l-.288-.254a40.748,40.748,0,0,1-6.493-7.321C32.661,79.889,27.167,71.894,23.6,66.7A71.676,71.676,0,0,1,60.7,30.735l8.633,4.239a5.749,5.749,0,0,0,8.327-5.051V25.934a73.154,73.154,0,0,1,8.769-.854l10.175,9.989a5.575,5.575,0,0,1,0,7.988L94.92,44.709,91.2,48.358a2.788,2.788,0,0,0,0,3.992l1.686,1.655a2.788,2.788,0,0,1,0,3.992l-2.876,2.824a2.907,2.907,0,0,1-2.035.826H84.745a2.9,2.9,0,0,0-2.006.8l-3.567,3.406a2.789,2.789,0,0,0-.568,3.286L84.209,80.15a2.827,2.827,0,0,1-2.571,4.087H79.611a2.9,2.9,0,0,1-1.884-.692L74.39,80.7A5.841,5.841,0,0,0,68.8,79.607L57.592,83.274a4.19,4.19,0,0,0-.561,7.776l3.984,1.955a24.721,24.721,0,0,0,10.9,2.527c3.782,0,8.122,9.632,11.505,11.295h24a11.622,11.622,0,0,1,8.137,3.307l4.922,4.832a10.668,10.668,0,0,1,3.211,7.614,16.276,16.276,0,0,1-4.933,11.641Zm31.176-32.244a8.629,8.629,0,0,1-5.088-3.519l-6.465-9.52a8.332,8.332,0,0,1,0-9.4l7.043-10.37a8.571,8.571,0,0,1,3.322-2.877l4.667-2.291a67.242,67.242,0,0,1,7.011,40.545Z" transform="translate(0 -8)" fill="#0065a1"/>
</svg>
