<svg xmlns="http://www.w3.org/2000/svg" width="172.93" height="150.901" viewBox="0 0 172.93 150.901">
  <path id="hand-holding-usd-solid" d="M81.378,42.529l16.293,4.215a2.544,2.544,0,0,1,1.99,2.387,2.626,2.626,0,0,1-2.738,2.476H86.235a9.153,9.153,0,0,1-3.359-.648,4.366,4.366,0,0,0-4.593.589l-5.7,5.158a3.46,3.46,0,0,0-.675.784,3.313,3.313,0,0,0-.4,2.558,3.372,3.372,0,0,0,1.566,2.081,25.47,25.47,0,0,0,10.361,3.389v5.217a5,5,0,0,0,5.215,4.716h5.215a5,5,0,0,0,5.218-4.716V65.548c9.886-1.061,17.365-9.137,16.062-18.568-.946-6.779-6.743-12.172-13.978-14.059L84.866,28.707a2.544,2.544,0,0,1-1.99-2.387,2.626,2.626,0,0,1,2.738-2.476H96.3a9.153,9.153,0,0,1,3.371.648,4.367,4.367,0,0,0,4.593-.589l5.7-5.158a3.34,3.34,0,0,0-.5-5.417A25.485,25.485,0,0,0,99.106,9.938V4.716A5,5,0,0,0,93.891,0H88.676a5,5,0,0,0-5.215,4.716V9.9C73.587,10.964,66.093,19.039,67.4,28.471,68.339,35.249,74.154,40.643,81.378,42.529ZM169.705,96.7c-3.543-3.154-9.067-2.947-12.789,0l-27.74,21.78a19.331,19.331,0,0,1-12.009,4.126H81.66a4.716,4.716,0,1,1,0-9.431h23.5c4.773,0,9.22-3.213,9.982-7.84a9.031,9.031,0,0,0,.138-1.609,9.521,9.521,0,0,0-9.607-9.414H57.642A35.734,35.734,0,0,0,35.4,102.061l-13.96,11.114H4.8A4.76,4.76,0,0,0,0,117.891v28.294A4.76,4.76,0,0,0,4.8,150.9h107.11a19.44,19.44,0,0,0,12.009-4.126l45.4-35.662a9.321,9.321,0,0,0,.384-14.412Z" fill="#0065a1"/>
</svg>
