<svg xmlns="http://www.w3.org/2000/svg" width="197.668" height="150.901" viewBox="0 0 197.668 150.901">
  <path id="home-solid" d="M96.2,71.2,32.932,122.351v55.21a5.441,5.441,0,0,0,5.49,5.39l38.453-.1a5.44,5.44,0,0,0,5.463-5.39V145.221a5.441,5.441,0,0,1,5.49-5.39H109.79a5.441,5.441,0,0,1,5.49,5.39V177.44a5.34,5.34,0,0,0,1.6,3.822,5.543,5.543,0,0,0,3.888,1.585l38.439.1a5.441,5.441,0,0,0,5.49-5.39V122.314L101.448,71.2a4.244,4.244,0,0,0-5.25,0Zm99.935,34.768L167.446,82.752V36.092a4.081,4.081,0,0,0-4.118-4.042H144.112a4.081,4.081,0,0,0-4.118,4.042v24.46L109.272,35.739a16.709,16.709,0,0,0-20.932,0L1.479,105.966a3.992,3.992,0,0,0-.549,5.693L9.68,122.1a4.17,4.17,0,0,0,5.8.549L96.2,57.386a4.244,4.244,0,0,1,5.25,0l80.719,65.265a4.171,4.171,0,0,0,5.8-.539l8.75-10.443a3.992,3.992,0,0,0-.583-5.7Z" transform="translate(0.015 -32.05)" fill="#0065a1"/>
</svg>
