<svg xmlns="http://www.w3.org/2000/svg" width="188.641" height="150.9" viewBox="0 0 188.641 150.9">
  <path id="incentivo-icon" d="M143.823,56.608H99.02V73.114a21.222,21.222,0,0,1-42.444,0V37.272l-19.129,11.5A18.824,18.824,0,0,0,28.28,64.92V78.861L4.7,92.479a9.409,9.409,0,0,0-3.449,12.881l23.58,40.853a9.435,9.435,0,0,0,12.881,3.449l30.477-17.6h40.263A18.882,18.882,0,0,0,127.317,113.2h4.716a9.422,9.422,0,0,0,9.432-9.432V84.9h2.358A7.057,7.057,0,0,0,150.9,77.83V63.682A7.057,7.057,0,0,0,143.823,56.608Zm43.535-11.024L163.777,4.731A9.435,9.435,0,0,0,150.9,1.283l-30.477,17.6H90.3A19.006,19.006,0,0,0,80.3,21.738L70.43,27.9a9.368,9.368,0,0,0-4.421,7.988V73.114a11.79,11.79,0,0,0,23.58,0V47.175h54.234a16.517,16.517,0,0,1,16.506,16.506v8.4l23.58-13.618A9.442,9.442,0,0,0,187.357,45.584Z" transform="translate(0.023 -0.022)" fill="#0065a1"/>
</svg>
