<svg xmlns="http://www.w3.org/2000/svg" width="113.44" height="165" viewBox="0 0 113.44 165">
  <path id="lightbulb-regular" d="M56.72,25.782A30.971,30.971,0,0,0,25.782,56.72a5.156,5.156,0,0,0,10.313,0A20.649,20.649,0,0,1,56.72,36.094a5.156,5.156,0,0,0,0-10.313Zm-25.762,122.2a5.123,5.123,0,0,0,.864,2.849l7.9,11.872a5.159,5.159,0,0,0,4.293,2.3H69.424a5.15,5.15,0,0,0,4.293-2.3l7.9-11.872a5.183,5.183,0,0,0,.864-2.849l.016-13.916H30.945ZM56.72,0C23.758,0,0,26.739,0,56.72A56.4,56.4,0,0,0,14.038,94.032c5.363,6.12,13.774,18.95,16.893,29.7v.019H46.4v-.039a15.248,15.248,0,0,0-.693-4.534A101.618,101.618,0,0,0,25.672,83.836a41.249,41.249,0,1,1,62.1,0,101.847,101.847,0,0,0-20.013,35.276,15.31,15.31,0,0,0-.715,4.608v.032H82.511v-.016c3.12-10.754,11.531-23.584,16.894-29.7A56.694,56.694,0,0,0,56.72,0Z" fill="#0065a1"/>
</svg>
