<svg xmlns="http://www.w3.org/2000/svg" width="169.041" height="165.956" viewBox="0 0 169.041 165.956">
  <path id="sun-solid" d="M84.524,51.861c-17.466,0-31.7,13.97-31.7,31.117s14.23,31.117,31.7,31.117,31.7-13.97,31.7-31.117S101.991,51.861,84.524,51.861Zm81.355,26.093L134.612,62.623,145.672,30.08a5.657,5.657,0,0,0-7.231-7.1L105.292,33.84,89.642,3.112a5.764,5.764,0,0,0-10.235,0l-15.617,30.7L30.607,22.949a5.657,5.657,0,0,0-7.231,7.1L34.437,62.59,3.17,77.954A5.567,5.567,0,0,0,3.17,88l31.267,15.332L23.376,135.909a5.657,5.657,0,0,0,7.231,7.1l33.149-10.858,15.617,30.7a5.764,5.764,0,0,0,10.235,0l15.617-30.7,33.149,10.858a5.657,5.657,0,0,0,7.231-7.1l-11.061-32.543,31.267-15.332a5.574,5.574,0,0,0,.066-10.081Zm-51.474,34.358a42.867,42.867,0,0,1-59.761,0,41,41,0,0,1,0-58.668,42.867,42.867,0,0,1,59.761,0A41,41,0,0,1,114.405,112.312Z" transform="translate(0 0)" fill="#0065a1"/>
</svg>
