<svg xmlns="http://www.w3.org/2000/svg" width="35.998" height="34" viewBox="0 0 35.998 34">
  <path id="flag-usa-solid" d="M2.25-.023A2.188,2.188,0,0,0,0,2.1V32.913a1.1,1.1,0,0,0,1.125,1.062h2.25A1.1,1.1,0,0,0,4.5,32.913V2.1A2.188,2.188,0,0,0,2.25-.023Zm18.836,20.16c-4.022-1-7.854-1.912-14.336.737v4.6c13.056-6.122,15.587,3.539,27.948-1.534A2.081,2.081,0,0,0,36,22.029V19.639a22.385,22.385,0,0,1-7.882,1.6A28.213,28.213,0,0,1,21.086,20.137Zm0-6.375c-4.022-1-7.854-1.912-14.336.737v4.084c6.665-2.5,10.87-1.507,14.913-.5,4.022,1,7.854,1.912,14.336-.737V13.257a22.384,22.384,0,0,1-7.882,1.6A27.917,27.917,0,0,1,21.086,13.762Zm.668-8.36C25.4,6.438,28.6,7.327,36,4.067V2.022C36,.355,34.114-.508,32.525.256,20.481,6.053,21.472-4.154,6.75,2.128V12.215c6.665-2.49,10.87-1.507,14.913-.5,4.022,1,7.854,1.906,14.336-.737V6.4a23.079,23.079,0,0,1-8.866,2.085,20.738,20.738,0,0,1-6.025-1.056c-.281-.08-.57-.159-.851-.232V4.99C20.762,5.123,21.261,5.262,21.754,5.4Zm-10.5,3.081A1.064,1.064,0,1,1,12.374,7.42,1.094,1.094,0,0,1,11.249,8.483Zm0-3.705a1.094,1.094,0,0,1-1.125-1.062,1.127,1.127,0,0,1,2.25,0A1.1,1.1,0,0,1,11.249,4.778Zm4.5,3.181A1.064,1.064,0,1,1,16.874,6.9,1.094,1.094,0,0,1,15.749,7.958Zm0-3.712a1.094,1.094,0,0,1-1.125-1.062,1.127,1.127,0,0,1,2.25,0A1.1,1.1,0,0,1,15.749,4.246Z" transform="translate(0 0.025)" fill="#fff"/>
</svg>
