<svg xmlns="http://www.w3.org/2000/svg" width="20.505" height="20.5" viewBox="0 0 20.505 20.5">
  <path id="instagram-brands" d="M10.18,36.819a5.256,5.256,0,1,0,5.256,5.256A5.248,5.248,0,0,0,10.18,36.819Zm0,8.673A3.417,3.417,0,1,1,13.6,42.075a3.423,3.423,0,0,1-3.417,3.417Zm6.7-8.888a1.226,1.226,0,1,1-1.226-1.226A1.223,1.223,0,0,1,16.876,36.6Zm3.481,1.244a6.067,6.067,0,0,0-1.656-4.3,6.107,6.107,0,0,0-4.3-1.656c-1.693-.1-6.765-.1-8.458,0a6.1,6.1,0,0,0-4.3,1.651A6.087,6.087,0,0,0,0,37.844c-.1,1.693-.1,6.765,0,8.458a6.067,6.067,0,0,0,1.656,4.3,6.114,6.114,0,0,0,4.3,1.656c1.693.1,6.765.1,8.458,0A6.067,6.067,0,0,0,18.7,50.6a6.107,6.107,0,0,0,1.656-4.3c.1-1.693.1-6.761,0-8.453ZM18.171,48.118a3.459,3.459,0,0,1-1.949,1.949c-1.349.535-4.551.412-6.043.412s-4.7.119-6.043-.412a3.459,3.459,0,0,1-1.949-1.949c-.535-1.349-.412-4.551-.412-6.043s-.119-4.7.412-6.043a3.459,3.459,0,0,1,1.949-1.949c1.349-.535,4.551-.412,6.043-.412s4.7-.119,6.043.412a3.459,3.459,0,0,1,1.949,1.949c.535,1.349.412,4.551.412,6.043S18.706,46.773,18.171,48.118Z" transform="translate(0.075 -31.825)" fill="hsl(202, 100%, 32%)"/>
</svg>
